<svg width="24" height="24" viewBox="0 0 24 24" fill="none" xmlns="http://www.w3.org/2000/svg">
<g clip-path="url(#clip0_0_292)">
<path d="M18.9286 5.33923C17.6234 4.70585 16.2423 4.25546 14.8219 4C14.6439 4.33127 14.4386 4.77862 14.2935 5.13254C12.78 4.89472 11.2404 4.89472 9.72684 5.13254C9.56882 4.74532 9.39059 4.36725 9.19297 4C7.75747 4.25615 6.36218 4.71238 5.04521 5.35622C2.43884 9.43054 1.72975 13.4058 2.08566 17.3215C3.60599 18.5113 5.31535 19.4177 7.13688 20C7.5506 19.418 7.9169 18.8015 8.232 18.1568C7.63953 17.9282 7.06859 17.6439 6.52636 17.3074C6.66873 17.1998 6.80014 17.0837 6.94524 16.9648C8.52083 17.7502 10.2474 18.1581 11.9965 18.1581C13.7455 18.1581 15.4721 17.7502 17.0477 16.9648C17.1846 17.0837 17.3215 17.1998 17.4666 17.3074C16.9228 17.6427 16.351 17.927 15.7582 18.1568C16.0725 18.8019 16.4388 19.4185 16.8533 20C18.6764 19.4162 20.3875 18.5089 21.91 17.3187C22.3297 13.0856 21.2722 8.83678 18.9286 5.33923ZM8.66731 14.8979C7.6817 14.8979 6.87132 13.9466 6.87132 12.7857C6.87132 11.6248 7.66528 10.6735 8.66731 10.6735C9.66934 10.6735 10.4797 11.6248 10.4633 12.7857C10.4469 13.9466 9.67208 14.8979 8.66731 14.8979ZM15.3037 14.8979C14.3181 14.8979 13.5077 13.9466 13.5077 12.7857C13.5077 11.6248 14.299 10.6735 15.3037 10.6735C16.3085 10.6735 17.1161 11.6248 17.0997 12.7857C17.0833 13.9466 16.3058 14.8979 15.3037 14.8979Z" fill="#DBDBE3"/>
</g>
<defs>
<clipPath id="clip0_0_292">
<rect width="24" height="24" fill="white"/>
</clipPath>
</defs>
</svg>
