<svg width="24" height="24" viewBox="0 0 24 24" fill="none" xmlns="http://www.w3.org/2000/svg">
<g clip-path="url(#clip0_0_288)">
<path fill-rule="evenodd" clip-rule="evenodd" d="M3.04233 1.5C2.19074 1.5 1.5 2.17395 1.5 3.00433V20.9962C1.5 21.8266 2.19074 22.5 3.04233 22.5H20.8254C21.6773 22.5 22.3678 21.8266 22.3678 20.9959V3.00433C22.3678 2.17395 21.6773 1.5 20.8254 1.5H3.04233ZM7.82587 9.59643V19.079H4.674V9.59643H7.82587ZM8.03353 6.66379C8.03353 7.57377 7.3494 8.30197 6.25048 8.30197H6.25021H6.22982C5.17195 8.30197 4.48809 7.57377 4.48809 6.66379C4.48809 5.73316 5.1926 5.02533 6.27141 5.02533C7.34939 5.02533 8.01287 5.73316 8.03353 6.66379ZM12.722 19.079H9.57036C9.57063 19.023 9.61153 10.4834 9.57063 9.59671H12.7222V10.9391C13.1411 10.2931 13.8909 9.37417 15.5629 9.37417C17.6365 9.37417 19.1912 10.7295 19.1912 13.642V19.079H16.0396V14.0067C16.0396 12.7318 15.5833 11.8623 14.443 11.8623C13.5722 11.8623 13.0536 12.4486 12.8258 13.0152C12.7426 13.2173 12.722 13.501 12.722 13.7841V19.079ZM9.57036 19.0793V19.079V19.0793Z" fill="#DBDBE3"/>
</g>
<defs>
<clipPath id="clip0_0_288">
<rect width="24" height="24" fill="white"/>
</clipPath>
</defs>
</svg>
