<svg width="24" height="24" viewBox="0 0 24 24" fill="none" xmlns="http://www.w3.org/2000/svg">
<path d="M22.1842 19.8759L24 21.629V21.6871H14.79V21.629L16.6388 19.8759C16.836 19.7135 16.9305 19.4559 16.8851 19.2027V7.99587C16.8851 7.52224 16.8851 6.88212 16.9676 6.33462L10.755 21.9114H10.6811L4.248 7.58037L3.97687 6.95712V16.3539C3.8998 16.9824 4.00538 17.6198 4.281 18.1899L6.86925 21.6294V21.6875H0V21.6294L2.58825 18.1816C2.862 17.6146 2.96325 16.9801 2.892 16.3539V5.96862C2.934 5.45712 2.78137 4.94862 2.4645 4.54812L0.632625 2.14699V2.08887H7.20563L12.7106 14.2269L17.5583 2.08887H23.9918V2.14699L22.1842 4.18249C21.9675 4.34262 21.8595 4.61299 21.9049 4.87999V19.2027C21.8812 19.3299 21.895 19.4613 21.9446 19.5808C21.9942 19.7003 22.0775 19.8028 22.1842 19.8759Z" fill="#DBDBE3"/>
</svg>
