<svg width="24" height="24" viewBox="0 0 24 24" fill="none" xmlns="http://www.w3.org/2000/svg">
<g clip-path="url(#clip0_0_291)">
<path d="M21.9997 12.6436C21.9836 12.1918 21.8396 11.7543 21.5848 11.384C21.3301 11.0136 20.9756 10.7261 20.5641 10.5563C20.1526 10.3864 19.7016 10.3413 19.2654 10.4265C18.8293 10.5117 18.4267 10.7235 18.1062 11.0364C16.3139 9.7944 14.2062 9.10861 12.0386 9.06219L13.061 4.05696L16.4336 4.77883C16.4556 4.98835 16.518 5.19139 16.6172 5.37634C16.7164 5.5613 16.8503 5.72456 17.0115 5.85678C17.1726 5.989 17.3578 6.0876 17.5564 6.14694C17.7549 6.20628 17.9631 6.22521 18.1688 6.20263C18.3746 6.18016 18.574 6.11663 18.7557 6.01567C18.9373 5.91471 19.0977 5.7783 19.2275 5.61422C19.3574 5.45015 19.4542 5.26163 19.5125 5.05944C19.5708 4.85725 19.5894 4.64535 19.5672 4.43584C19.5451 4.22633 19.4828 4.02329 19.3836 3.83833C19.2844 3.65337 19.1505 3.49012 18.9893 3.3579C18.8282 3.22567 18.643 3.12708 18.4444 3.06773C18.2458 3.00839 18.0377 2.98947 17.832 3.01205C17.5866 3.03781 17.3507 3.12246 17.1437 3.25904C16.9367 3.39561 16.7645 3.58023 16.6412 3.79773L12.779 3.01205C12.7162 2.99771 12.6513 2.99615 12.5879 3.00746C12.5245 3.01876 12.464 3.04271 12.4098 3.07792C12.3555 3.11313 12.3087 3.15891 12.2719 3.21263C12.2351 3.26635 12.209 3.32694 12.1953 3.39093V3.3989L11.032 8.96647C8.83845 9.00247 6.70278 9.68849 4.88611 10.9406C4.6664 10.7277 4.40748 10.561 4.12426 10.4504C3.84104 10.3397 3.53911 10.2871 3.23587 10.2958C2.93262 10.3044 2.63405 10.374 2.35734 10.5006C2.08063 10.6272 1.83125 10.8083 1.62356 11.0334C1.41587 11.2586 1.25397 11.5233 1.14719 11.8124C1.04041 12.1015 0.990859 12.4093 1.00139 12.718C1.01191 13.0267 1.08231 13.3302 1.20852 13.6111C1.33474 13.892 1.51428 14.1446 1.7368 14.3546C1.91833 14.5299 2.12755 14.6728 2.3557 14.7773C2.34003 15.0124 2.34003 15.2482 2.3557 15.4832C2.3557 19.0766 6.4686 22 11.5412 22C16.6138 22 20.7267 19.0806 20.7267 15.4832C20.7423 15.2482 20.7423 15.0124 20.7267 14.7773C21.1149 14.5801 21.4404 14.2751 21.6657 13.8976C21.8909 13.52 22.0067 13.0853 21.9997 12.6436ZM6.24141 14.2509C6.24141 13.933 6.33399 13.6222 6.50745 13.3579C6.6809 13.0936 6.92744 12.8876 7.21589 12.766C7.50433 12.6443 7.82173 12.6125 8.12794 12.6745C8.43416 12.7365 8.71543 12.8896 8.9362 13.1144C9.15697 13.3392 9.30731 13.6255 9.36822 13.9373C9.42913 14.2491 9.39787 14.5723 9.27839 14.8659C9.15891 15.1596 8.95658 15.4107 8.69699 15.5873C8.43739 15.7639 8.13219 15.8581 7.81998 15.8581C7.40154 15.8574 7.00044 15.6878 6.70456 15.3866C6.40868 15.0853 6.24213 14.6769 6.24141 14.2509ZM15.3956 18.6619C14.2774 19.5204 12.9013 19.9573 11.502 19.8982C10.1027 19.9573 8.72666 19.5204 7.60846 18.6619C7.54127 18.5787 7.5069 18.473 7.51204 18.3654C7.51718 18.2579 7.56145 18.1561 7.63624 18.0799C7.71104 18.0038 7.81099 17.9587 7.91664 17.9535C8.02229 17.9483 8.12607 17.9832 8.20777 18.0517C9.15547 18.7592 10.3124 19.1152 11.4863 19.0607C12.6615 19.1249 13.8232 18.7804 14.7806 18.0836C14.822 18.0424 14.8709 18.01 14.9247 17.9882C14.9784 17.9663 15.0358 17.9555 15.0936 17.9562C15.1514 17.957 15.2086 17.9693 15.2617 17.9925C15.3149 18.0157 15.363 18.0494 15.4034 18.0915C15.4438 18.1337 15.4756 18.1835 15.4971 18.2382C15.5185 18.2929 15.5292 18.3514 15.5285 18.4103C15.5277 18.4691 15.5156 18.5273 15.4928 18.5814C15.47 18.6355 15.437 18.6846 15.3956 18.7257V18.6619ZM15.1135 15.914C14.8013 15.914 14.4961 15.8197 14.2365 15.6431C13.9769 15.4665 13.7746 15.2155 13.6551 14.9218C13.5356 14.6281 13.5044 14.3049 13.5653 13.9931C13.6262 13.6814 13.7765 13.395 13.9973 13.1702C14.2181 12.9454 14.4994 12.7924 14.8056 12.7303C15.1118 12.6683 15.4292 12.7001 15.7176 12.8218C16.0061 12.9434 16.2526 13.1495 16.4261 13.4138C16.5995 13.6781 16.6921 13.9888 16.6921 14.3067C16.7003 14.5173 16.6678 14.7274 16.5962 14.9251C16.5247 15.1228 16.4156 15.3043 16.2752 15.4591C16.1348 15.6139 15.9659 15.739 15.778 15.8273C15.5901 15.9157 15.3869 15.9654 15.1801 15.9738H15.1018L15.1135 15.914Z" fill="#DBDBE3"/>
</g>
<defs>
<clipPath id="clip0_0_291">
<rect width="24" height="24" fill="white"/>
</clipPath>
</defs>
</svg>
