<svg width="24" height="24" viewBox="0 0 24 24" fill="none" xmlns="http://www.w3.org/2000/svg">
<g clip-path="url(#clip0_0_289)">
<path d="M2.34609 11.9282C7.71346 9.65879 11.2904 8.1617 13.077 7.43691C18.1866 5.37154 19.2504 5.01101 19.9405 4.99983C20.1947 4.99409 20.4443 5.06647 20.6536 5.20665C20.801 5.33073 20.8945 5.5045 20.9153 5.69294C20.9545 5.92566 20.9651 6.16208 20.9469 6.39724C20.6594 9.22559 19.4719 16.0869 18.8623 19.2534C18.6035 20.5921 18.0974 21.0421 17.6057 21.0868C16.5361 21.1818 15.7252 20.3993 14.6901 19.7397C13.0713 18.7084 12.154 18.0628 10.5841 17.0595C8.76681 15.8968 9.94284 15.2568 10.978 14.2115C11.2655 13.9321 15.9581 9.77337 16.0501 9.39607C16.0617 9.34053 16.0599 9.28315 16.045 9.22838C16.03 9.17361 16.0023 9.12293 15.9639 9.08026C15.9079 9.04592 15.8444 9.02476 15.7785 9.01845C15.7126 9.01214 15.6461 9.02087 15.5843 9.04393C15.4214 9.07933 12.8336 10.7422 7.82081 14.0327C7.08759 14.5218 6.4205 14.7593 5.8253 14.7481C5.16684 14.7481 3.90454 14.3876 2.94992 14.0886C1.79977 13.7252 0.882521 13.5296 0.960156 12.9147C1.01958 12.5961 1.48156 12.2673 2.34609 11.9282Z" fill="#DBDBE3"/>
</g>
<defs>
<clipPath id="clip0_0_289">
<rect width="24" height="24" fill="white"/>
</clipPath>
</defs>
</svg>
