<svg width="24" height="24" viewBox="0 0 24 24" fill="none" xmlns="http://www.w3.org/2000/svg">
<g clip-path="url(#clip0_0_287)">
<path d="M19.8186 8.01553C19.8307 8.19053 19.8307 8.36553 19.8307 8.54215C19.8307 13.9236 15.7339 20.13 8.2428 20.13V20.1268C6.0299 20.1301 3.86296 19.4962 2.00006 18.301C2.32184 18.3397 2.64522 18.3591 2.96942 18.3599C4.80329 18.3615 6.58474 17.7462 8.02748 16.6131C6.28474 16.58 4.75651 15.4438 4.22264 13.7849C4.83313 13.9026 5.46216 13.8784 6.06135 13.7147C4.16135 13.3309 2.79442 11.6615 2.79442 9.72279C2.79442 9.70505 2.79442 9.68811 2.79442 9.67118C3.36054 9.9865 3.99442 10.1615 4.6428 10.1809C2.85329 8.98489 2.30167 6.60424 3.38232 4.74295C5.45006 7.28731 8.50087 8.83408 11.7759 8.99779C11.4476 7.58328 11.896 6.10102 12.9541 5.10666C14.5944 3.56473 17.1743 3.64376 18.7162 5.28328C19.6283 5.10344 20.5025 4.76876 21.3025 4.29457C20.9984 5.23731 20.3622 6.03812 19.5122 6.54699C20.3194 6.45182 21.1081 6.2357 21.8509 5.90586C21.3041 6.72521 20.6154 7.43892 19.8186 8.01553Z" fill="#DBDBE3"/>
</g>
<defs>
<clipPath id="clip0_0_287">
<rect width="24" height="24" fill="white"/>
</clipPath>
</defs>
</svg>
